<svg width="203" height="41" viewBox="0 0 203 41" fill="none" xmlns="http://www.w3.org/2000/svg">
    <g clip-path="url(#clip0)">
        <path d="M65.8438 28L64.2441 23.9131H59.0938L57.5117 28H56L61.0801 15.0977H62.3369L67.3906 28H65.8438ZM63.7783 22.5684L62.2842 18.5869C62.0908 18.083 61.8916 17.4648 61.6865 16.7324C61.5576 17.2949 61.373 17.9131 61.1328 18.5869L59.6211 22.5684H63.7783ZM75.5293 28V21.7686C75.5293 20.9834 75.3506 20.3975 74.9932 20.0107C74.6357 19.624 74.0762 19.4307 73.3145 19.4307C72.3066 19.4307 71.5684 19.7031 71.0996 20.248C70.6309 20.793 70.3965 21.6924 70.3965 22.9463V28H68.9375V18.3672H70.124L70.3613 19.6855H70.4316C70.7305 19.2109 71.1494 18.8447 71.6885 18.5869C72.2275 18.3232 72.8281 18.1914 73.4902 18.1914C74.6504 18.1914 75.5234 18.4727 76.1094 19.0352C76.6953 19.5918 76.9883 20.4854 76.9883 21.7158V28H75.5293ZM86.5859 28V21.7686C86.5859 20.9834 86.4072 20.3975 86.0498 20.0107C85.6924 19.624 85.1328 19.4307 84.3711 19.4307C83.3633 19.4307 82.625 19.7031 82.1562 20.248C81.6875 20.793 81.4531 21.6924 81.4531 22.9463V28H79.9941V18.3672H81.1807L81.418 19.6855H81.4883C81.7871 19.2109 82.2061 18.8447 82.7451 18.5869C83.2842 18.3232 83.8848 18.1914 84.5469 18.1914C85.707 18.1914 86.5801 18.4727 87.166 19.0352C87.752 19.5918 88.0449 20.4854 88.0449 21.7158V28H86.5859ZM92.4219 18.3672V24.6162C92.4219 25.4014 92.6006 25.9873 92.958 26.374C93.3154 26.7607 93.875 26.9541 94.6367 26.9541C95.6445 26.9541 96.3799 26.6787 96.8428 26.1279C97.3115 25.5771 97.5459 24.6777 97.5459 23.4297V18.3672H99.0049V28H97.8008L97.5898 26.708H97.5107C97.2119 27.1826 96.7959 27.5459 96.2627 27.7979C95.7354 28.0498 95.1318 28.1758 94.4521 28.1758C93.2803 28.1758 92.4014 27.8975 91.8154 27.3408C91.2354 26.7842 90.9453 25.8936 90.9453 24.6689V18.3672H92.4219ZM108.321 25.3721C108.321 26.2686 107.987 26.96 107.319 27.4463C106.651 27.9326 105.714 28.1758 104.507 28.1758C103.229 28.1758 102.233 27.9736 101.519 27.5693V26.2158C101.981 26.4502 102.477 26.6348 103.004 26.7695C103.537 26.9043 104.05 26.9717 104.542 26.9717C105.304 26.9717 105.89 26.8516 106.3 26.6113C106.71 26.3652 106.915 25.9932 106.915 25.4951C106.915 25.1201 106.751 24.8008 106.423 24.5371C106.101 24.2676 105.468 23.9512 104.524 23.5879C103.628 23.2539 102.989 22.9639 102.608 22.7178C102.233 22.4658 101.952 22.1816 101.765 21.8652C101.583 21.5488 101.492 21.1709 101.492 20.7314C101.492 19.9463 101.812 19.3281 102.45 18.877C103.089 18.4199 103.965 18.1914 105.078 18.1914C106.115 18.1914 107.129 18.4023 108.119 18.8242L107.601 20.0107C106.634 19.6123 105.758 19.4131 104.973 19.4131C104.281 19.4131 103.76 19.5215 103.408 19.7383C103.057 19.9551 102.881 20.2539 102.881 20.6348C102.881 20.8926 102.945 21.1123 103.074 21.2939C103.209 21.4756 103.423 21.6484 103.716 21.8125C104.009 21.9766 104.571 22.2139 105.403 22.5244C106.546 22.9404 107.316 23.3594 107.715 23.7812C108.119 24.2031 108.321 24.7334 108.321 25.3721ZM117.295 28V21.7686C117.295 20.9834 117.116 20.3975 116.759 20.0107C116.401 19.624 115.842 19.4307 115.08 19.4307C114.066 19.4307 113.325 19.7061 112.856 20.2568C112.394 20.8076 112.162 21.71 112.162 22.9639V28H110.703V14.3242H112.162V18.4639C112.162 18.9619 112.139 19.375 112.092 19.7031H112.18C112.467 19.2402 112.874 18.877 113.401 18.6133C113.935 18.3438 114.541 18.209 115.221 18.209C116.398 18.209 117.28 18.4902 117.866 19.0527C118.458 19.6094 118.754 20.4971 118.754 21.7158V28H117.295ZM123.201 23.0693C123.453 22.7119 123.837 22.2432 124.353 21.6631L127.464 18.3672H129.195L125.293 22.4717L129.468 28H127.701L124.3 23.4473L123.201 24.3965V28H121.76V14.3242H123.201V21.5752C123.201 21.8975 123.178 22.3955 123.131 23.0693H123.201ZM137.141 28L136.851 26.6289H136.78C136.3 27.2324 135.819 27.6426 135.339 27.8594C134.864 28.0703 134.27 28.1758 133.555 28.1758C132.6 28.1758 131.85 27.9297 131.305 27.4375C130.766 26.9453 130.496 26.2451 130.496 25.3369C130.496 23.3916 132.052 22.3721 135.163 22.2783L136.798 22.2256V21.6279C136.798 20.8721 136.634 20.3154 136.306 19.958C135.983 19.5947 135.465 19.4131 134.75 19.4131C133.947 19.4131 133.039 19.6592 132.025 20.1514L131.577 19.0352C132.052 18.7773 132.57 18.5752 133.133 18.4287C133.701 18.2822 134.27 18.209 134.838 18.209C135.986 18.209 136.836 18.4639 137.387 18.9736C137.943 19.4834 138.222 20.3008 138.222 21.4258V28H137.141ZM133.845 26.9717C134.753 26.9717 135.465 26.7227 135.98 26.2246C136.502 25.7266 136.763 25.0293 136.763 24.1328V23.2627L135.304 23.3242C134.144 23.3652 133.306 23.5469 132.79 23.8691C132.28 24.1855 132.025 24.6807 132.025 25.3545C132.025 25.8818 132.184 26.2832 132.5 26.5586C132.822 26.834 133.271 26.9717 133.845 26.9717ZM154.279 18.8945C154.279 20.1953 153.834 21.1973 152.943 21.9004C152.059 22.5977 150.79 22.9463 149.138 22.9463H147.626V28H146.132V15.1504H149.463C152.674 15.1504 154.279 16.3984 154.279 18.8945ZM147.626 21.6631H148.971C150.295 21.6631 151.253 21.4492 151.845 21.0215C152.437 20.5938 152.732 19.9082 152.732 18.9648C152.732 18.1152 152.454 17.4824 151.897 17.0664C151.341 16.6504 150.474 16.4424 149.296 16.4424H147.626V21.6631ZM161.152 18.1914C161.58 18.1914 161.964 18.2266 162.304 18.2969L162.102 19.6504C161.703 19.5625 161.352 19.5186 161.047 19.5186C160.268 19.5186 159.6 19.835 159.043 20.4678C158.492 21.1006 158.217 21.8887 158.217 22.832V28H156.758V18.3672H157.962L158.129 20.1514H158.199C158.557 19.5244 158.987 19.041 159.491 18.7012C159.995 18.3613 160.549 18.1914 161.152 18.1914ZM172.42 23.1748C172.42 24.7451 172.024 25.9727 171.233 26.8574C170.442 27.7363 169.35 28.1758 167.955 28.1758C167.094 28.1758 166.329 27.9736 165.661 27.5693C164.993 27.165 164.478 26.585 164.114 25.8291C163.751 25.0732 163.569 24.1885 163.569 23.1748C163.569 21.6045 163.962 20.3828 164.747 19.5098C165.532 18.6309 166.622 18.1914 168.017 18.1914C169.364 18.1914 170.434 18.6396 171.225 19.5361C172.021 20.4326 172.42 21.6455 172.42 23.1748ZM165.081 23.1748C165.081 24.4053 165.327 25.3428 165.819 25.9873C166.312 26.6318 167.035 26.9541 167.99 26.9541C168.945 26.9541 169.669 26.6348 170.161 25.9961C170.659 25.3516 170.908 24.4111 170.908 23.1748C170.908 21.9502 170.659 21.0215 170.161 20.3887C169.669 19.75 168.939 19.4307 167.973 19.4307C167.018 19.4307 166.297 19.7441 165.811 20.3711C165.324 20.998 165.081 21.9326 165.081 23.1748ZM173.817 32.3242C173.261 32.3242 172.81 32.251 172.464 32.1045V30.918C172.868 31.0352 173.267 31.0938 173.659 31.0938C174.116 31.0938 174.45 30.9678 174.661 30.7158C174.878 30.4697 174.986 30.0918 174.986 29.582V18.3672H176.445V29.4766C176.445 31.375 175.569 32.3242 173.817 32.3242ZM174.863 15.7568C174.863 15.4229 174.945 15.1797 175.109 15.0273C175.273 14.8691 175.479 14.79 175.725 14.79C175.959 14.79 176.161 14.8691 176.331 15.0273C176.501 15.1855 176.586 15.4287 176.586 15.7568C176.586 16.085 176.501 16.3311 176.331 16.4951C176.161 16.6533 175.959 16.7324 175.725 16.7324C175.479 16.7324 175.273 16.6533 175.109 16.4951C174.945 16.3311 174.863 16.085 174.863 15.7568ZM183.608 28.1758C182.185 28.1758 181.06 27.7422 180.233 26.875C179.413 26.0078 179.003 24.8037 179.003 23.2627C179.003 21.71 179.384 20.4766 180.146 19.5625C180.913 18.6484 181.941 18.1914 183.23 18.1914C184.438 18.1914 185.393 18.5898 186.096 19.3867C186.799 20.1777 187.15 21.2236 187.15 22.5244V23.4473H180.515C180.544 24.5781 180.828 25.4365 181.367 26.0225C181.912 26.6084 182.677 26.9014 183.661 26.9014C184.698 26.9014 185.724 26.6846 186.737 26.251V27.5518C186.222 27.7744 185.732 27.9326 185.27 28.0264C184.812 28.126 184.259 28.1758 183.608 28.1758ZM183.213 19.4131C182.439 19.4131 181.821 19.665 181.358 20.1689C180.901 20.6729 180.632 21.3701 180.55 22.2607H185.586C185.586 21.3408 185.381 20.6377 184.971 20.1514C184.561 19.6592 183.975 19.4131 183.213 19.4131ZM193.496 28.1758C192.102 28.1758 191.021 27.748 190.253 26.8926C189.491 26.0312 189.11 24.8154 189.11 23.2451C189.11 21.6338 189.497 20.3887 190.271 19.5098C191.05 18.6309 192.157 18.1914 193.593 18.1914C194.056 18.1914 194.519 18.2412 194.981 18.3408C195.444 18.4404 195.808 18.5576 196.071 18.6924L195.623 19.9316C195.301 19.8027 194.949 19.6973 194.568 19.6152C194.188 19.5273 193.851 19.4834 193.558 19.4834C191.601 19.4834 190.622 20.7314 190.622 23.2275C190.622 24.4111 190.859 25.3193 191.334 25.9521C191.814 26.585 192.523 26.9014 193.461 26.9014C194.264 26.9014 195.087 26.7285 195.931 26.3828V27.6748C195.286 28.0088 194.475 28.1758 193.496 28.1758ZM201.336 26.9717C201.594 26.9717 201.843 26.9541 202.083 26.9189C202.323 26.8779 202.514 26.8369 202.654 26.7959V27.9121C202.496 27.9883 202.262 28.0498 201.951 28.0967C201.646 28.1494 201.371 28.1758 201.125 28.1758C199.262 28.1758 198.33 27.1943 198.33 25.2314V19.501H196.95V18.7979L198.33 18.1914L198.945 16.1348H199.789V18.3672H202.584V19.501H199.789V25.1699C199.789 25.75 199.927 26.1953 200.202 26.5059C200.478 26.8164 200.855 26.9717 201.336 26.9717Z"
              fill="white"/>
        <rect x="1.5" y="1.5" width="29" height="38" rx="5.5" stroke="white" stroke-width="3"/>
        <circle cx="7" cy="23" r="2" fill="white"/>
        <circle cx="13" cy="23" r="2" fill="white"/>
        <circle cx="19" cy="23" r="2" fill="white"/>
        <circle cx="25" cy="23" r="2" fill="white"/>
        <circle cx="7" cy="28" r="2" fill="white"/>
        <circle cx="13" cy="28" r="2" fill="white"/>
        <circle cx="19" cy="28" r="2" fill="white"/>
        <circle cx="13" cy="33" r="2" fill="white"/>
        <circle cx="7" cy="33" r="2" fill="white"/>
        <circle cx="19" cy="33" r="2" fill="white"/>
        <path d="M23 28C23 26.8954 23.8954 26 25 26V26C26.1046 26 27 26.8954 27 28V33C27 34.1046 26.1046 35 25 35V35C23.8954 35 23 34.1046 23 33V28Z"
              fill="white"/>
    </g>
    <defs>
        <clipPath id="clip0">
            <rect width="203" height="41" fill="white"/>
        </clipPath>
    </defs>
</svg>
